<?xml version="1.0" encoding="UTF-8"?>
<svg width="50px" height="55px" viewBox="0 0 50 55" version="1.1" xmlns="http://www.w3.org/2000/svg" xmlns:xlink="http://www.w3.org/1999/xlink">
    <!-- Generator: Sketch 53.2 (72643) - https://sketchapp.com -->
    <title>health_diet-checklist</title>
    <desc>Created with Sketch.</desc>
    <defs>
        <linearGradient x1="50%" y1="0%" x2="50%" y2="100%" id="linearGradient-1">
            <stop stop-color="#99DEFC" offset="0%"></stop>
            <stop stop-color="#60BAF8" offset="100%"></stop>
        </linearGradient>
        <linearGradient x1="50%" y1="0%" x2="50%" y2="100%" id="linearGradient-2">
            <stop stop-color="#99DEFC" offset="0%"></stop>
            <stop stop-color="#60BAF8" offset="100%"></stop>
        </linearGradient>
        <linearGradient x1="50%" y1="0%" x2="50%" y2="100%" id="linearGradient-3">
            <stop stop-color="#99DEFC" offset="0%"></stop>
            <stop stop-color="#60BAF8" offset="100%"></stop>
        </linearGradient>
        <linearGradient x1="50%" y1="0%" x2="50%" y2="100%" id="linearGradient-4">
            <stop stop-color="#99DEFC" offset="0%"></stop>
            <stop stop-color="#60BAF8" offset="100%"></stop>
        </linearGradient>
    </defs>
    <g id="Mockups-💅" stroke="none" stroke-width="1" fill="none" fill-rule="evenodd">
        <g id="Desktop" transform="translate(-247.000000, -1840.000000)">
            <g id="Features" transform="translate(0.000000, 1570.000000)">
                <g id="health_diet-checklist" transform="translate(247.000000, 270.000000)">
                    <path d="M0,5.97826087 L0,51.4130435 C0,53.3906522 1.60238095,55 3.57142857,55 L36.9047619,55 C44.1261905,55 50,49.1006522 50,41.8478261 C50,34.9991304 44.7595238,29.3628261 38.0952381,28.7554348 L38.0952381,5.97826087 C38.0952381,4.00065217 36.4928571,2.39130435 34.5238095,2.39130435 L26.1904762,2.39130435 L26.1904762,1.19565217 C26.1904762,0.535652174 25.6571429,0 25,0 L13.0952381,0 C12.4380952,0 11.9047619,0.535652174 11.9047619,1.19565217 L11.9047619,2.39130435 L3.57142857,2.39130435 C1.60238095,2.39130435 0,4.00065217 0,5.97826087 Z M47.6190476,41.8478261 C47.6190476,47.7806522 42.8119048,52.6086957 36.9047619,52.6086957 C30.997619,52.6086957 26.1904762,47.7806522 26.1904762,41.8478261 C26.1904762,35.915 30.997619,31.0869565 36.9047619,31.0869565 C42.8119048,31.0869565 47.6190476,35.915 47.6190476,41.8478261 Z M14.2857143,2.39130435 L23.8095238,2.39130435 L23.8095238,5.97826087 C23.8095238,6.63826087 23.2761905,7.17391304 22.6190476,7.17391304 L15.4761905,7.17391304 C14.8190476,7.17391304 14.2857143,6.63826087 14.2857143,5.97826087 L14.2857143,2.39130435 Z M15.4761905,9.56521739 L22.6190476,9.56521739 C24.5880952,9.56521739 26.1904762,7.95586957 26.1904762,5.97826087 L26.1904762,4.7826087 L34.5238095,4.7826087 C35.1809524,4.7826087 35.7142857,5.31826087 35.7142857,5.97826087 L35.7142857,28.7554348 C32.1404762,29.0806522 28.9761905,30.8478261 26.8119048,33.4782609 L15.4761905,33.4782609 C14.8190476,33.4782609 14.2857143,34.013913 14.2857143,34.673913 C14.2857143,35.333913 14.8190476,35.8695652 15.4761905,35.8695652 L25.2547619,35.8695652 C24.5095238,37.3282609 24.0238095,38.9423913 23.8690476,40.6521739 L15.4761905,40.6521739 C14.8190476,40.6521739 14.2857143,41.1878261 14.2857143,41.8478261 C14.2857143,42.5078261 14.8190476,43.0434783 15.4761905,43.0434783 L23.8690476,43.0434783 C24.2261905,46.9963043 26.3309524,50.4421739 29.397619,52.6086957 L3.57142857,52.6086957 C2.91428571,52.6086957 2.38095238,52.0730435 2.38095238,51.4130435 L2.38095238,5.97826087 C2.38095238,5.31826087 2.91428571,4.7826087 3.57142857,4.7826087 L11.9047619,4.7826087 L11.9047619,5.97826087 C11.9047619,7.95586957 13.5071429,9.56521739 15.4761905,9.56521739 Z" id="Shape" fill="url(#linearGradient-1)"></path>
                    <path d="M15.4761905,28.6956522 L29.7619048,28.6956522 C30.4190476,28.6956522 30.952381,28.16 30.952381,27.5 C30.952381,26.84 30.4190476,26.3043478 29.7619048,26.3043478 L15.4761905,26.3043478 C14.8190476,26.3043478 14.2857143,26.84 14.2857143,27.5 C14.2857143,28.16 14.8190476,28.6956522 15.4761905,28.6956522 Z" id="Path" fill="url(#linearGradient-2)"></path>
                    <path d="M15.4761905,21.5217391 L29.7619048,21.5217391 C30.4190476,21.5217391 30.952381,20.986087 30.952381,20.326087 C30.952381,19.666087 30.4190476,19.1304348 29.7619048,19.1304348 L15.4761905,19.1304348 C14.8190476,19.1304348 14.2857143,19.666087 14.2857143,20.326087 C14.2857143,20.986087 14.8190476,21.5217391 15.4761905,21.5217391 Z" id="Path" fill="url(#linearGradient-2)"></path>
                    <path d="M10.7142857,19.1304348 L8.33333333,19.1304348 C7.67619048,19.1304348 7.14285714,19.666087 7.14285714,20.326087 C7.14285714,20.986087 7.67619048,21.5217391 8.33333333,21.5217391 L10.7142857,21.5217391 C11.3714286,21.5217391 11.9047619,20.986087 11.9047619,20.326087 C11.9047619,19.666087 11.3714286,19.1304348 10.7142857,19.1304348 Z" id="Path" fill="url(#linearGradient-3)"></path>
                    <path d="M10.7142857,26.3043478 L8.33333333,26.3043478 C7.67619048,26.3043478 7.14285714,26.84 7.14285714,27.5 C7.14285714,28.16 7.67619048,28.6956522 8.33333333,28.6956522 L10.7142857,28.6956522 C11.3714286,28.6956522 11.9047619,28.16 11.9047619,27.5 C11.9047619,26.84 11.3714286,26.3043478 10.7142857,26.3043478 Z" id="Path" fill="url(#linearGradient-3)"></path>
                    <path d="M10.7142857,33.4782609 L8.33333333,33.4782609 C7.67619048,33.4782609 7.14285714,34.013913 7.14285714,34.673913 C7.14285714,35.333913 7.67619048,35.8695652 8.33333333,35.8695652 L10.7142857,35.8695652 C11.3714286,35.8695652 11.9047619,35.333913 11.9047619,34.673913 C11.9047619,34.013913 11.3714286,33.4782609 10.7142857,33.4782609 Z" id="Path" fill="url(#linearGradient-3)"></path>
                    <path d="M10.7142857,40.6521739 L8.33333333,40.6521739 C7.67619048,40.6521739 7.14285714,41.1878261 7.14285714,41.8478261 C7.14285714,42.5078261 7.67619048,43.0434783 8.33333333,43.0434783 L10.7142857,43.0434783 C11.3714286,43.0434783 11.9047619,42.5078261 11.9047619,41.8478261 C11.9047619,41.1878261 11.3714286,40.6521739 10.7142857,40.6521739 Z" id="Path" fill="url(#linearGradient-3)"></path>
                    <path d="M30.602381,41.0013043 C30.1380952,40.535 29.3833333,40.535 28.9190476,41.0013043 C28.4547619,41.4676087 28.4547619,42.2256522 28.9190476,42.6919565 L33.6809524,47.4745652 C33.9142857,47.708913 34.2190476,47.826087 34.5238095,47.826087 C34.8285714,47.826087 35.1333333,47.708913 35.3642857,47.4769565 L44.8880952,37.9117391 C45.352381,37.4454348 45.352381,36.6873913 44.8880952,36.221087 C44.4238095,35.7547826 43.6690476,35.7547826 43.2047619,36.221087 L34.5238095,44.9397826 L30.602381,41.0013043 Z" id="Path" fill="url(#linearGradient-4)"></path>
                </g>
            </g>
        </g>
    </g>
</svg>