<?xml version="1.0" encoding="UTF-8"?>
<svg width="50px" height="50px" viewBox="0 0 50 50" version="1.1" xmlns="http://www.w3.org/2000/svg" xmlns:xlink="http://www.w3.org/1999/xlink">
    <!-- Generator: Sketch 53.2 (72643) - https://sketchapp.com -->
    <title>health_scale</title>
    <desc>Created with Sketch.</desc>
    <defs>
        <linearGradient x1="50%" y1="0%" x2="50%" y2="100%" id="linearGradient-1">
            <stop stop-color="#99DEFC" offset="0%"></stop>
            <stop stop-color="#60BAF8" offset="100%"></stop>
        </linearGradient>
        <linearGradient x1="50%" y1="0%" x2="50%" y2="100%" id="linearGradient-2">
            <stop stop-color="#99DEFC" offset="0%"></stop>
            <stop stop-color="#60BAF8" offset="100%"></stop>
        </linearGradient>
    </defs>
    <g id="Mockups-💅" stroke="none" stroke-width="1" fill="none" fill-rule="evenodd">
        <g id="Desktop" transform="translate(-1009.000000, -1849.000000)">
            <g id="Features" transform="translate(0.000000, 1570.000000)">
                <g id="health_scale" transform="translate(1009.000000, 279.000000)">
                    <path d="M5.43478261,50 L44.5652174,50 C47.5608696,50 50,47.5608696 50,44.5652174 L50,5.43478261 C50,2.43913043 47.5608696,0 44.5652174,0 L5.43478261,0 C2.43913043,0 0,2.43913043 0,5.43478261 L0,44.5652174 C0,47.5608696 2.43913043,50 5.43478261,50 Z M2.17391304,5.43478261 C2.17391304,3.63695652 3.63695652,2.17391304 5.43478261,2.17391304 L44.5652174,2.17391304 C46.3630435,2.17391304 47.826087,3.63695652 47.826087,5.43478261 L47.826087,44.5652174 C47.826087,46.3630435 46.3630435,47.826087 44.5652174,47.826087 L5.43478261,47.826087 C3.63695652,47.826087 2.17391304,46.3630435 2.17391304,44.5652174 L2.17391304,5.43478261 Z" id="Shape" fill="url(#linearGradient-1)"></path>
                    <path d="M25,17.3913043 C31.5934783,17.3913043 36.9565217,12.0282609 36.9565217,5.43478261 C36.9565217,4.83478261 36.4695652,4.34782609 35.8695652,4.34782609 L14.1304348,4.34782609 C13.5304348,4.34782609 13.0434783,4.83478261 13.0434783,5.43478261 C13.0434783,12.0282609 18.4065217,17.3913043 25,17.3913043 Z M23.9130435,6.52173913 L23.9130435,9.7826087 C23.9130435,10.3826087 24.4,10.8695652 25,10.8695652 C25.6,10.8695652 26.0869565,10.3826087 26.0869565,9.7826087 L26.0869565,6.52173913 L34.7217391,6.52173913 C34.1782609,11.4065217 30.026087,15.2173913 25,15.2173913 C19.973913,15.2173913 15.8195652,11.4065217 15.2782609,6.52173913 L23.9130435,6.52173913 Z" id="Shape" fill="url(#linearGradient-2)"></path>
                </g>
            </g>
        </g>
    </g>
</svg>