<?xml version="1.0" encoding="UTF-8"?>
<svg width="22px" height="19px" viewBox="0 0 22 19" version="1.1" xmlns="http://www.w3.org/2000/svg" xmlns:xlink="http://www.w3.org/1999/xlink">
    <!-- Generator: Sketch 53.2 (72643) - https://sketchapp.com -->
    <title>Twitter</title>
    <desc>Created with Sketch.</desc>
    <defs>
        <linearGradient x1="50%" y1="0%" x2="50%" y2="100%" id="linearGradient-1">
            <stop stop-color="#99DEFC" offset="0%"></stop>
            <stop stop-color="#60BAF8" offset="100%"></stop>
        </linearGradient>
    </defs>
    <g id="Symbols-⚙️" stroke="none" stroke-width="1" fill="non" fill-rule="evenodd">
        <g id="Modules/Footer" transform="translate(-990.000000, -41.000000)" fill="url(#linearGradient-1)">
            <g id="Social">
                <g transform="translate(950.000000, 0.000000)">
                    <path d="M61.3932128,41.3486134 C60.5203321,41.8935861 59.5558166,42.2899298 58.5249246,42.5019979 C57.7037353,41.5775986 56.5301044,41 55.2307692,41 C52.740181,41 50.7189277,43.1315562 50.7189277,45.7603546 C50.7189277,46.1337395 50.7576963,46.4956449 50.8352335,46.8442582 C47.0840787,46.6454821 43.758791,44.7525781 41.5313593,41.8688146 C41.1424986,42.5744998 40.9204603,43.3931672 40.9204603,44.2650027 C40.9204603,45.9156296 41.7169786,47.372918 42.9287908,48.226628 C42.1898379,48.203669 41.4925907,47.9873717 40.8828665,47.6333207 L40.8828665,47.6913222 C40.8828665,49.9986955 42.4388968,51.9236213 44.5053801,52.3592369 C44.1270926,52.4710107 43.7276587,52.5271997 43.3158892,52.5271997 C43.0251248,52.5271997 42.7414092,52.4981989 42.4665047,52.4426141 C43.0409847,54.3331014 44.7068593,55.7100336 46.6822951,55.7468887 C45.138013,57.0241307 43.1907724,57.7854008 41.0767095,57.7854008 C40.7125197,57.7854008 40.3524417,57.7636502 40,57.720149 C41.9971698,59.0686846 44.3708648,59.8571429 46.9190185,59.8571429 C55.2219582,59.8571429 59.7608202,52.604535 59.7608202,46.3131817 C59.7608202,46.1059471 59.7572958,45.8993166 59.7496596,45.6963113 C60.6313513,45.0250644 61.3973246,44.1870632 62,43.2324547 C61.1917336,43.610673 60.3212026,43.8668464 59.4083785,43.9816411 C60.3405869,43.3931672 61.0560436,42.4603093 61.3932128,41.3486134" id="Twitter"></path>
                </g>
            </g>
        </g>
    </g>
</svg>