<?xml version="1.0" encoding="UTF-8"?>
<svg width="22px" height="22px" viewBox="0 0 22 22" version="1.1" xmlns="http://www.w3.org/2000/svg" xmlns:xlink="http://www.w3.org/1999/xlink">
    <!-- Generator: Sketch 53.2 (72643) - https://sketchapp.com -->
    <title>logo-instagram</title>
    <desc>Created with Sketch.</desc>
    <defs>
        <linearGradient x1="50%" y1="0%" x2="50%" y2="100%" id="linearGradient-1">
            <stop stop-color="#99DEFC" offset="0%"></stop>
            <stop stop-color="#60BAF8" offset="100%"></stop>
        </linearGradient>
    </defs>
    <g id="Symbols-⚙️" stroke="none" stroke-width="1" fill="none" fill-rule="evenodd">
        <g id="Modules/Footer" transform="translate(-1039.000000, -39.000000)" fill="url(#linearGradient-1)">
            <g id="Social">
                <g transform="translate(950.000000, 0.000000)">
                    <g id="logo-instagram" transform="translate(89.000000, 39.000000)">
                        <path d="M11,1.9820625 C13.937,1.9820625 14.284875,1.9930625 15.4446875,2.046 C16.696625,2.1030625 17.8585,2.354 18.75225,3.24775 C19.646,4.1415 19.8969375,5.303375 19.954,6.5553125 C20.0069375,7.715125 20.0179375,8.063 20.0179375,11 C20.0179375,13.937 20.0069375,14.284875 19.954,15.4446875 C19.8969375,16.696625 19.646,17.8585 18.75225,18.75225 C17.8585,19.646 16.696625,19.8969375 15.4446875,19.954 C14.284875,20.0069375 13.937,20.0179375 11,20.0179375 C8.063,20.0179375 7.715125,20.0069375 6.5553125,19.954 C5.303375,19.8969375 4.1415,19.646 3.24775,18.75225 C2.354,17.8585 2.1030625,16.696625 2.046,15.4446875 C1.9930625,14.284875 1.9820625,13.937 1.9820625,11 C1.9820625,8.063 1.9930625,7.715125 2.046,6.5553125 C2.1030625,5.303375 2.354,4.1415 3.24775,3.24775 C4.1415,2.354 5.303375,2.1030625 6.5553125,2.046 C7.715125,1.9930625 8.063,1.9820625 11,1.9820625 L11,1.9820625 Z M11,0 C8.0128125,0 7.638125,0.012375 6.4645625,0.066 C4.6770625,0.1478125 3.1068125,0.58575 1.8459375,1.8459375 C0.58575,3.106125 0.1478125,4.676375 0.066,6.4645625 C0.012375,7.638125 0,8.0128125 0,11 C0,13.9871875 0.012375,14.361875 0.066,15.5354375 C0.1478125,17.3229375 0.58575,18.8931875 1.8459375,20.1540625 C3.106125,21.41425 4.676375,21.8521875 6.4645625,21.934 C7.638125,21.987625 8.0128125,22 11,22 C13.9871875,22 14.361875,21.987625 15.5354375,21.934 C17.3229375,21.8521875 18.8931875,21.41425 20.1540625,20.1540625 C21.41425,18.893875 21.8521875,17.323625 21.934,15.5354375 C21.987625,14.361875 22,13.9871875 22,11 C22,8.0128125 21.987625,7.638125 21.934,6.4645625 C21.8521875,4.6770625 21.41425,3.1068125 20.1540625,1.8459375 C18.893875,0.58575 17.323625,0.1478125 15.5354375,0.066 C14.361875,0.012375 13.9871875,0 11,0 L11,0 Z" id="Shape"></path>
                        <path d="M11,5.5 C7.96214703,5.5 5.5,7.96281646 5.5,11 C5.5,14.037853 7.96281646,16.5 11,16.5 C14.0371835,16.5 16.5,14.0371835 16.5,11 C16.5,7.96214703 14.037853,5.5 11,5.5 Z M11,14.5700463 C9.02787244,14.5700463 7.42995375,12.9714581 7.42995375,11 C7.42995375,9.02787244 9.02854187,7.42995375 11,7.42995375 C12.9721276,7.42995375 14.5700463,9.02854187 14.5700463,11 C14.5700463,12.9721276 12.9721276,14.5700463 11,14.5700463 Z" id="Shape"></path>
                        <circle id="Oval" cx="16.9583333" cy="5.04166667" r="1.375"></circle>
                    </g>
                </g>
            </g>
        </g>
    </g>
</svg>