<?xml version="1.0" encoding="UTF-8"?>
<svg width="24px" height="24px" viewBox="0 0 24 24" version="1.1" xmlns="http://www.w3.org/2000/svg" xmlns:xlink="http://www.w3.org/1999/xlink">
    <!-- Generator: Sketch 53.2 (72643) - https://sketchapp.com -->
    <title>logo-pinterest</title>
    <desc>Created with Sketch.</desc>
    <defs>
        <linearGradient x1="50%" y1="0%" x2="50%" y2="100%" id="linearGradient-1">
            <stop stop-color="#13192B" offset="0%"></stop>
            <stop stop-color="#267FBE" offset="100%"></stop>
        </linearGradient>
        <linearGradient x1="50%" y1="0%" x2="50%" y2="100%" id="linearGradient-2">
            <stop stop-color="#99DEFC" offset="0%"></stop>
            <stop stop-color="#60BAF8" offset="100%"></stop>
        </linearGradient>
    </defs>
    <g id="Symbols-⚙️" stroke="none" stroke-width="1" fill="none" fill-rule="evenodd">
        <g id="Modules/Footer" transform="translate(-1088.000000, -38.000000)" fill="url(#linearGradient-2)">
            <g id="Social">
                <g transform="translate(950.000000, 0.000000)">
                    <g id="logo-pinterest" transform="translate(138.000000, 38.000000)">
                        <path d="M12,0 C5.4,0 0,5.4 0,12 C0,17.1 3.2,21.4 7.6,23.2 C7.5,22.3 7.4,20.8 7.6,19.8 C7.8,18.9 9,13.8 9,13.8 C9,13.8 8.7,13 8.7,12 C8.7,10.3 9.7,9.1 10.9,9.1 C11.9,9.1 12.4,9.9 12.4,10.8 C12.4,11.8 11.7,13.4 11.4,14.8 C11.1,16 12,17 13.2,17 C15.3,17 17,14.8 17,11.5 C17,8.6 14.9,6.6 12,6.6 C8.6,6.6 6.6,9.2 6.6,11.8 C6.6,12.8 7,13.9 7.5,14.5 C7.6,14.6 7.6,14.7 7.6,14.8 C7.5,15.2 7.3,16 7.3,16.2 C7.2,16.4 7.1,16.5 6.9,16.4 C5.4,15.7 4.5,13.5 4.5,11.8 C4.5,8 7.3,4.5 12.4,4.5 C16.6,4.5 19.8,7.5 19.8,11.4 C19.8,15.5 17.2,18.9 13.6,18.9 C12.4,18.9 11.2,18.3 10.8,17.5 C10.8,17.5 10.2,19.8 10.1,20.4 C9.8,21.4 9.1,22.7 8.6,23.5 C9.6,23.8 10.8,24 12,24 C18.6,24 24,18.6 24,12 C24,5.4 18.6,0 12,0 Z" id="Path"></path>
                    </g>
                </g>
            </g>
        </g>
    </g>
</svg>